Coordinates
version=1
nRows=6
nColumns=36
inDegrees=yes

Units are S.I. units (second, meters, Newtons, ...)
If the header above contains a line with 'inDegrees', this indicates whether rotational values are in degrees (yes) or radians (no).

endheader
time	pelvis_tilt	pelvis_list	pelvis_rotation	pelvis_tx	pelvis_ty	pelvis_tz	hip_flexion_r	hip_adduction_r	hip_rotation_r	knee_angle_r	knee_angle_r_beta	ankle_angle_r	subtalar_angle_r	mtp_angle_r	hip_flexion_l	hip_adduction_l	hip_rotation_l	knee_angle_l	knee_angle_l_beta	ankle_angle_l	subtalar_angle_l	mtp_angle_l	lumbar_extension	lumbar_bending	lumbar_rotation	arm_flex_r	arm_add_r	arm_rot_r	elbow_flex_r	pro_sup_r	arm_flex_l	arm_add_l	arm_rot_l	elbow_flex_l	pro_sup_l
      4.41666670	    -11.88015928	     -1.24517364	      5.28840649	      0.89613498	      0.72036574	     -0.00028041	     62.66825695	     -5.84654135	      5.22017261	     81.62240170	      1.42457965	     33.32427960	    -11.54687376	     -7.49999987	     59.97384521	    -17.31079867	     -4.74802684	     81.61533444	      1.42445631	     34.34256985	     -0.51339559	     -7.49999987	    -44.26762673	     -6.06341809	     -2.64308154	     65.02643481	      3.30132119	     12.59629842	     99.22856908	     97.94674085	     65.59279053	     -8.88296367	     15.87214121	    105.50271764	     92.93379780
      4.43333330	    -13.41349285	     -0.92230950	      5.20025988	      0.89362165	      0.71233420	      0.00375403	     65.93436886	     -5.30123362	      5.98365821	     83.23362608	      1.45270082	     32.89414241	    -12.08313191	     -7.49999987	     62.96433368	    -18.09733682	     -5.15031126	     82.88297240	      1.44658076	     34.03034246	      1.51201302	     -7.49999987	    -46.05554876	     -6.79261021	     -2.58445129	     67.60818521	      3.20779340	     12.58696081	    103.10578695	     96.06564255	     70.12272672	     -7.98902518	     17.46651146	    107.78259605	     91.76193641
      4.45000000	    -14.45052886	     -0.64656763	      5.32716090	      0.88443162	      0.70120464	      0.00310617	     68.96953683	     -5.31572127	      6.54912038	     85.13247991	      1.48584207	     32.48702526	    -12.03706920	     -7.49999987	     65.95842171	    -18.40863579	     -5.15317715	     84.62452770	      1.47697664	     33.49819896	      2.28427342	     -7.49999987	    -47.51945643	     -7.05217766	     -3.05255628	     71.06781652	      3.09052205	     12.47504214	    104.81859563	     96.19886852	     73.85597093	     -7.06902888	     17.84842129	    108.08589358	     91.86560370
      4.46666670	    -15.72190103	     -0.43314163	      5.62569401	      0.89663760	      0.69280320	      0.00944657	     71.15291148	     -5.13279107	      7.01403449	     86.88842210	      1.51648905	     32.77170471	    -12.51098726	     -7.49999987	     68.20954694	    -19.05162295	     -5.21284946	     86.10608742	      1.50283473	     33.29864605	      3.52420409	     -7.49999987	    -48.55880686	     -8.01025123	     -1.98184165	     70.45349303	      1.15964600	     11.82383812	    111.09314135	     98.38886080	     75.46409396	     -5.07971540	     20.02840629	    109.42538685	     93.26880458
      4.48333330	    -16.77136676	     -0.08294394	      5.89320783	      0.88681350	      0.68422407	      0.00933841	     73.31076332	     -5.26600879	      7.53217465	     88.16893307	      1.53883818	     32.55703286	    -12.92801122	     -7.49999987	     70.49942069	    -19.15795586	     -5.34356683	     87.70038105	      1.53066040	     33.42997531	      4.66700805	     -7.49999987	    -49.69766057	     -8.22069824	     -2.23942209	     71.76270609	      1.15494797	     12.41778682	    113.14490399	     98.89163404	     76.62559045	     -4.47373216	     19.87998585	    111.21843454	     93.54959409
      4.50000000	    -18.03949449	     -0.13629631	      6.29875044	      0.88771267	      0.67440725	      0.01018249	     75.68117418	     -5.24014304	      7.90624335	     89.79623753	      1.56724000	     32.71971631	    -13.36772843	     -7.49999987	     72.93279279	    -19.29598365	     -5.12286678	     89.02545272	      1.55378727	     33.35896652	      4.95397135	     -7.49999987	    -50.07128156	     -8.08011502	     -2.21296882	     72.15158682	      0.76698027	     12.98395620	    115.84731601	     99.68811133	     76.37713892	     -3.83207125	     20.19864349	    113.51896900	     94.04326753
